<?xml version="1.0" encoding="UTF-8" standalone="no"?>
<!DOCTYPE svg PUBLIC "-//W3C//DTD SVG 1.1//EN"
 "http://www.w3.org/Graphics/SVG/1.1/DTD/svg11.dtd">
<!-- Generated by graphviz version 10.0.1 (0)
 -->
<!-- Title: lib Pages: 1 -->
<svg width="719pt" height="146pt"
 viewBox="0.00 0.00 719.38 146.25" xmlns="http://www.w3.org/2000/svg" xmlns:xlink="http://www.w3.org/1999/xlink">
<g id="graph0" class="graph" transform="scale(1 1) rotate(0) translate(4 142.25)">
<title>lib</title>
<g id="clust1" class="cluster">
<title>clusterdir_271d3aa807e54726686810b489123a0c</title>
<g id="a_clust1"><a xlink:href="dir_271d3aa807e54726686810b489123a0c.html" target="_top" xlink:title="nixd">
<polygon fill="#edf0f7" stroke="#404040" stroke-dasharray="5,2" points="8,-8 8,-130.25 456,-130.25 456,-8 8,-8"/>
<text text-anchor="middle" x="232" y="-116.75" font-family="Helvetica,sans-Serif" font-size="10.00">nixd</text>
</a>
</g>
</g>
<g id="clust2" class="cluster">
<title>clusterdir_8710806578cad174ffcb5e19312c912a</title>
<g id="a_clust2"><a xlink:href="dir_8710806578cad174ffcb5e19312c912a.html" target="_top">
<polygon fill="#edf0f7" stroke="#404040" stroke-width="2" points="16,-64.75 16,-101.5 448,-101.5 448,-64.75 16,-64.75"/>
</a>
</g>
</g>
<!-- dir_6072663c54edb131dd9eabf55cf77072 -->
<g id="node1" class="node">
<title>dir_6072663c54edb131dd9eabf55cf77072</title>
<g id="a_node1"><a xlink:href="dir_6072663c54edb131dd9eabf55cf77072.html" target="_top" xlink:title="include">
<polygon fill="#a2b4d6" stroke="red" points="299.62,-36.75 248.38,-36.75 248.38,-16 299.62,-16 299.62,-36.75"/>
<text text-anchor="middle" x="274" y="-23.25" font-family="Helvetica,sans-Serif" font-size="10.00">include</text>
</a>
</g>
</g>
<!-- dir_8710806578cad174ffcb5e19312c912a -->
<g id="node2" class="node">
<title>dir_8710806578cad174ffcb5e19312c912a</title>
<text text-anchor="middle" x="38" y="-80" font-family="Helvetica,sans-Serif" font-size="10.00">lib</text>
</g>
<!-- dir_ace1bc4bdf9378a7354e2dacfa3269ed -->
<g id="node3" class="node">
<title>dir_ace1bc4bdf9378a7354e2dacfa3269ed</title>
<g id="a_node3"><a xlink:href="dir_ace1bc4bdf9378a7354e2dacfa3269ed.html" target="_top" xlink:title="CommandLine">
<polygon fill="#a2b4d6" stroke="#404040" points="228.25,-93.5 141.75,-93.5 141.75,-72.75 228.25,-72.75 228.25,-93.5"/>
<text text-anchor="middle" x="185" y="-80" font-family="Helvetica,sans-Serif" font-size="10.00">CommandLine</text>
</a>
</g>
</g>
<!-- dir_ace1bc4bdf9378a7354e2dacfa3269ed&#45;&gt;dir_6072663c54edb131dd9eabf55cf77072 -->
<g id="edge1" class="edge">
<title>dir_ace1bc4bdf9378a7354e2dacfa3269ed&#45;&gt;dir_6072663c54edb131dd9eabf55cf77072</title>
<g id="a_edge1"><a xlink:href="dir_000006_000018.html" target="_top">
<path fill="none" stroke="#63b8ff" d="M200.91,-72.34C214.2,-64.16 233.39,-52.36 248.77,-42.9"/>
<polygon fill="#63b8ff" stroke="#63b8ff" points="250.25,-46.09 256.94,-37.87 246.59,-40.13 250.25,-46.09"/>
</a>
</g>
<g id="a_edge1&#45;headlabel"><a xlink:href="dir_000006_000018.html" target="_top" xlink:title="1">
<text text-anchor="middle" x="249.97" y="-46.48" font-family="Helvetica,sans-Serif" font-size="10.00" fill="#63b8ff">1</text>
</a>
</g>
</g>
<!-- dir_2dfd61e782002e6a63843e36bf78a91c -->
<g id="node4" class="node">
<title>dir_2dfd61e782002e6a63843e36bf78a91c</title>
<g id="a_node4"><a xlink:href="dir_2dfd61e782002e6a63843e36bf78a91c.html" target="_top" xlink:title="Controller">
<polygon fill="#a2b4d6" stroke="#404040" points="384,-93.5 320,-93.5 320,-72.75 384,-72.75 384,-93.5"/>
<text text-anchor="middle" x="352" y="-80" font-family="Helvetica,sans-Serif" font-size="10.00">Controller</text>
</a>
</g>
</g>
<!-- dir_2dfd61e782002e6a63843e36bf78a91c&#45;&gt;dir_6072663c54edb131dd9eabf55cf77072 -->
<g id="edge2" class="edge">
<title>dir_2dfd61e782002e6a63843e36bf78a91c&#45;&gt;dir_6072663c54edb131dd9eabf55cf77072</title>
<g id="a_edge2"><a xlink:href="dir_000008_000018.html" target="_top">
<path fill="none" stroke="#63b8ff" d="M338.06,-72.34C326.63,-64.32 310.23,-52.81 296.89,-43.44"/>
<polygon fill="#63b8ff" stroke="#63b8ff" points="299.26,-40.83 289.06,-37.95 295.24,-46.56 299.26,-40.83"/>
</a>
</g>
<g id="a_edge2&#45;headlabel"><a xlink:href="dir_000008_000018.html" target="_top" xlink:title="25">
<text text-anchor="middle" x="302.59" y="-36.58" font-family="Helvetica,sans-Serif" font-size="10.00" fill="#63b8ff">25</text>
</a>
</g>
</g>
<!-- dir_9ff0e04ed484c0229c3bd8fc4cfe4cb8 -->
<g id="node8" class="node">
<title>dir_9ff0e04ed484c0229c3bd8fc4cfe4cb8</title>
<g id="a_node8"><a xlink:href="dir_9ff0e04ed484c0229c3bd8fc4cfe4cb8.html" target="_top" xlink:title="libnixf">
<polygon fill="#edf0f7" stroke="red" points="510.38,-36.75 463.62,-36.75 463.62,-16 510.38,-16 510.38,-36.75"/>
<text text-anchor="middle" x="487" y="-23.25" font-family="Helvetica,sans-Serif" font-size="10.00">libnixf</text>
</a>
</g>
</g>
<!-- dir_2dfd61e782002e6a63843e36bf78a91c&#45;&gt;dir_9ff0e04ed484c0229c3bd8fc4cfe4cb8 -->
<g id="edge3" class="edge">
<title>dir_2dfd61e782002e6a63843e36bf78a91c&#45;&gt;dir_9ff0e04ed484c0229c3bd8fc4cfe4cb8</title>
<g id="a_edge3"><a xlink:href="dir_000008_000023.html" target="_top">
<path fill="none" stroke="#63b8ff" d="M375.53,-72.34C381.55,-69.85 388.01,-67.19 394,-64.75 413.48,-56.81 435.31,-48.03 452.91,-40.98"/>
<polygon fill="#63b8ff" stroke="#63b8ff" points="453.88,-44.36 461.87,-37.4 451.28,-37.86 453.88,-44.36"/>
</a>
</g>
<g id="a_edge3&#45;headlabel"><a xlink:href="dir_000008_000023.html" target="_top" xlink:title="24">
<text text-anchor="middle" x="453.01" y="-44.64" font-family="Helvetica,sans-Serif" font-size="10.00" fill="#63b8ff">24</text>
</a>
</g>
</g>
<!-- dir_b55f34eed50f427f5a82f0c0c0b607fd -->
<g id="node9" class="node">
<title>dir_b55f34eed50f427f5a82f0c0c0b607fd</title>
<g id="a_node9"><a xlink:href="dir_b55f34eed50f427f5a82f0c0c0b607fd.html" target="_top" xlink:title="libbc">
<polygon fill="#edf0f7" stroke="red" points="567.62,-36.75 528.38,-36.75 528.38,-16 567.62,-16 567.62,-36.75"/>
<text text-anchor="middle" x="548" y="-23.25" font-family="Helvetica,sans-Serif" font-size="10.00">libbc</text>
</a>
</g>
</g>
<!-- dir_2dfd61e782002e6a63843e36bf78a91c&#45;&gt;dir_b55f34eed50f427f5a82f0c0c0b607fd -->
<g id="edge4" class="edge">
<title>dir_2dfd61e782002e6a63843e36bf78a91c&#45;&gt;dir_b55f34eed50f427f5a82f0c0c0b607fd</title>
<g id="a_edge4"><a xlink:href="dir_000008_000021.html" target="_top">
<path fill="none" stroke="#63b8ff" d="M373.54,-72.38C380.03,-69.67 387.23,-66.89 394,-64.75 445,-48.62 462.02,-51.32 516.99,-37.05"/>
<polygon fill="#63b8ff" stroke="#63b8ff" points="517.89,-40.43 526.64,-34.47 516.08,-33.67 517.89,-40.43"/>
</a>
</g>
<g id="a_edge4&#45;headlabel"><a xlink:href="dir_000008_000021.html" target="_top" xlink:title="2">
<text text-anchor="middle" x="516.61" y="-40.59" font-family="Helvetica,sans-Serif" font-size="10.00" fill="#63b8ff">2</text>
</a>
</g>
</g>
<!-- dir_b78a71a762ff0582d59dc461a15bff38 -->
<g id="node10" class="node">
<title>dir_b78a71a762ff0582d59dc461a15bff38</title>
<g id="a_node10"><a xlink:href="dir_b78a71a762ff0582d59dc461a15bff38.html" target="_top" xlink:title="lspserver">
<polygon fill="#edf0f7" stroke="red" points="646.5,-36.75 585.5,-36.75 585.5,-16 646.5,-16 646.5,-36.75"/>
<text text-anchor="middle" x="616" y="-23.25" font-family="Helvetica,sans-Serif" font-size="10.00">lspserver</text>
</a>
</g>
</g>
<!-- dir_2dfd61e782002e6a63843e36bf78a91c&#45;&gt;dir_b78a71a762ff0582d59dc461a15bff38 -->
<g id="edge5" class="edge">
<title>dir_2dfd61e782002e6a63843e36bf78a91c&#45;&gt;dir_b78a71a762ff0582d59dc461a15bff38</title>
<g id="a_edge5"><a xlink:href="dir_000008_000025.html" target="_top">
<path fill="none" stroke="#63b8ff" d="M373.02,-72.27C379.62,-69.49 387.01,-66.7 394,-64.75 469.85,-43.59 494.18,-51.8 574.26,-37.11"/>
<polygon fill="#63b8ff" stroke="#63b8ff" points="574.74,-40.58 583.91,-35.27 573.43,-33.71 574.74,-40.58"/>
</a>
</g>
<g id="a_edge5&#45;headlabel"><a xlink:href="dir_000008_000025.html" target="_top" xlink:title="7">
<text text-anchor="middle" x="573.23" y="-40.64" font-family="Helvetica,sans-Serif" font-size="10.00" fill="#63b8ff">7</text>
</a>
</g>
</g>
<!-- dir_272f3262a55b8c6cb4d459b3d2979355 -->
<g id="node5" class="node">
<title>dir_272f3262a55b8c6cb4d459b3d2979355</title>
<g id="a_node5"><a xlink:href="dir_272f3262a55b8c6cb4d459b3d2979355.html" target="_top" xlink:title="Eval">
<polygon fill="#a2b4d6" stroke="#404040" points="439.5,-93.5 402.5,-93.5 402.5,-72.75 439.5,-72.75 439.5,-93.5"/>
<text text-anchor="middle" x="421" y="-80" font-family="Helvetica,sans-Serif" font-size="10.00">Eval</text>
</a>
</g>
</g>
<!-- dir_272f3262a55b8c6cb4d459b3d2979355&#45;&gt;dir_6072663c54edb131dd9eabf55cf77072 -->
<g id="edge6" class="edge">
<title>dir_272f3262a55b8c6cb4d459b3d2979355&#45;&gt;dir_6072663c54edb131dd9eabf55cf77072</title>
<g id="a_edge6"><a xlink:href="dir_000012_000018.html" target="_top">
<path fill="none" stroke="#63b8ff" d="M406.85,-72.39C402.53,-69.68 397.68,-66.9 393,-64.75 366.44,-52.57 334.82,-42.85 310.86,-36.38"/>
<polygon fill="#63b8ff" stroke="#63b8ff" points="311.78,-33 301.22,-33.85 310.01,-39.77 311.78,-33"/>
</a>
</g>
<g id="a_edge6&#45;headlabel"><a xlink:href="dir_000012_000018.html" target="_top" xlink:title="6">
<text text-anchor="middle" x="314.52" y="-27.66" font-family="Helvetica,sans-Serif" font-size="10.00" fill="#63b8ff">6</text>
</a>
</g>
</g>
<!-- dir_272f3262a55b8c6cb4d459b3d2979355&#45;&gt;dir_b55f34eed50f427f5a82f0c0c0b607fd -->
<g id="edge7" class="edge">
<title>dir_272f3262a55b8c6cb4d459b3d2979355&#45;&gt;dir_b55f34eed50f427f5a82f0c0c0b607fd</title>
<g id="a_edge7"><a xlink:href="dir_000012_000021.html" target="_top">
<path fill="none" stroke="#63b8ff" d="M439.74,-74.05C460.2,-65.22 493.28,-50.96 517.5,-40.52"/>
<polygon fill="#63b8ff" stroke="#63b8ff" points="518.74,-43.8 526.53,-36.63 515.97,-37.37 518.74,-43.8"/>
</a>
</g>
<g id="a_edge7&#45;headlabel"><a xlink:href="dir_000012_000021.html" target="_top" xlink:title="2">
<text text-anchor="middle" x="517.95" y="-44.11" font-family="Helvetica,sans-Serif" font-size="10.00" fill="#63b8ff">2</text>
</a>
</g>
</g>
<!-- dir_272f3262a55b8c6cb4d459b3d2979355&#45;&gt;dir_b78a71a762ff0582d59dc461a15bff38 -->
<g id="edge8" class="edge">
<title>dir_272f3262a55b8c6cb4d459b3d2979355&#45;&gt;dir_b78a71a762ff0582d59dc461a15bff38</title>
<g id="a_edge8"><a xlink:href="dir_000012_000025.html" target="_top">
<path fill="none" stroke="#63b8ff" d="M439.7,-76.88C470.52,-68.22 532.73,-50.75 574.39,-39.06"/>
<polygon fill="#63b8ff" stroke="#63b8ff" points="575.15,-42.48 583.83,-36.41 573.26,-35.74 575.15,-42.48"/>
</a>
</g>
<g id="a_edge8&#45;headlabel"><a xlink:href="dir_000012_000025.html" target="_top" xlink:title="1">
<text text-anchor="middle" x="573.91" y="-42.65" font-family="Helvetica,sans-Serif" font-size="10.00" fill="#63b8ff">1</text>
</a>
</g>
</g>
<!-- dir_c40eb6f7b133789742bdf3cebb28ba81 -->
<g id="node11" class="node">
<title>dir_c40eb6f7b133789742bdf3cebb28ba81</title>
<g id="a_node11"><a xlink:href="dir_c40eb6f7b133789742bdf3cebb28ba81.html" target="_top" xlink:title="libnixt">
<polygon fill="#edf0f7" stroke="red" points="711.38,-36.75 664.62,-36.75 664.62,-16 711.38,-16 711.38,-36.75"/>
<text text-anchor="middle" x="688" y="-23.25" font-family="Helvetica,sans-Serif" font-size="10.00">libnixt</text>
</a>
</g>
</g>
<!-- dir_272f3262a55b8c6cb4d459b3d2979355&#45;&gt;dir_c40eb6f7b133789742bdf3cebb28ba81 -->
<g id="edge9" class="edge">
<title>dir_272f3262a55b8c6cb4d459b3d2979355&#45;&gt;dir_c40eb6f7b133789742bdf3cebb28ba81</title>
<g id="a_edge9"><a xlink:href="dir_000012_000024.html" target="_top">
<path fill="none" stroke="#63b8ff" d="M439.71,-79.13C478,-72.87 568.24,-57.46 653.17,-37.27"/>
<polygon fill="#63b8ff" stroke="#63b8ff" points="653.93,-40.69 662.83,-34.94 652.29,-33.88 653.93,-40.69"/>
</a>
</g>
<g id="a_edge9&#45;headlabel"><a xlink:href="dir_000012_000024.html" target="_top" xlink:title="3">
<text text-anchor="middle" x="652.57" y="-40.81" font-family="Helvetica,sans-Serif" font-size="10.00" fill="#63b8ff">3</text>
</a>
</g>
</g>
<!-- dir_c7c53a0769b4ad4e9ba220fbe05bc880 -->
<g id="node6" class="node">
<title>dir_c7c53a0769b4ad4e9ba220fbe05bc880</title>
<g id="a_node6"><a xlink:href="dir_c7c53a0769b4ad4e9ba220fbe05bc880.html" target="_top" xlink:title="Protocol">
<polygon fill="#a2b4d6" stroke="#404040" points="301.88,-93.5 246.12,-93.5 246.12,-72.75 301.88,-72.75 301.88,-93.5"/>
<text text-anchor="middle" x="274" y="-80" font-family="Helvetica,sans-Serif" font-size="10.00">Protocol</text>
</a>
</g>
</g>
<!-- dir_c7c53a0769b4ad4e9ba220fbe05bc880&#45;&gt;dir_6072663c54edb131dd9eabf55cf77072 -->
<g id="edge10" class="edge">
<title>dir_c7c53a0769b4ad4e9ba220fbe05bc880&#45;&gt;dir_6072663c54edb131dd9eabf55cf77072</title>
<g id="a_edge10"><a xlink:href="dir_000037_000018.html" target="_top">
<path fill="none" stroke="#63b8ff" d="M274,-72.34C274,-65.72 274,-56.72 274,-48.52"/>
<polygon fill="#63b8ff" stroke="#63b8ff" points="277.5,-48.59 274,-38.59 270.5,-48.59 277.5,-48.59"/>
</a>
</g>
<g id="a_edge10&#45;headlabel"><a xlink:href="dir_000037_000018.html" target="_top" xlink:title="2">
<text text-anchor="middle" x="280.34" y="-47.55" font-family="Helvetica,sans-Serif" font-size="10.00" fill="#63b8ff">2</text>
</a>
</g>
</g>
<!-- dir_c7c53a0769b4ad4e9ba220fbe05bc880&#45;&gt;dir_b55f34eed50f427f5a82f0c0c0b607fd -->
<g id="edge11" class="edge">
<title>dir_c7c53a0769b4ad4e9ba220fbe05bc880&#45;&gt;dir_b55f34eed50f427f5a82f0c0c0b607fd</title>
<g id="a_edge11"><a xlink:href="dir_000037_000021.html" target="_top">
<path fill="none" stroke="#63b8ff" d="M292.01,-72.32C297.91,-69.48 304.6,-66.63 311,-64.75 397.07,-39.4 425.85,-56.02 517.03,-36.77"/>
<polygon fill="#63b8ff" stroke="#63b8ff" points="517.68,-40.21 526.68,-34.63 516.16,-33.37 517.68,-40.21"/>
</a>
</g>
<g id="a_edge11&#45;headlabel"><a xlink:href="dir_000037_000021.html" target="_top" xlink:title="2">
<text text-anchor="middle" x="516.26" y="-40.3" font-family="Helvetica,sans-Serif" font-size="10.00" fill="#63b8ff">2</text>
</a>
</g>
</g>
<!-- dir_978717066d8678c437a210f61244a087 -->
<g id="node7" class="node">
<title>dir_978717066d8678c437a210f61244a087</title>
<g id="a_node7"><a xlink:href="dir_978717066d8678c437a210f61244a087.html" target="_top" xlink:title="Support">
<polygon fill="#a2b4d6" stroke="#404040" points="123.75,-93.5 70.25,-93.5 70.25,-72.75 123.75,-72.75 123.75,-93.5"/>
<text text-anchor="middle" x="97" y="-80" font-family="Helvetica,sans-Serif" font-size="10.00">Support</text>
</a>
</g>
</g>
<!-- dir_978717066d8678c437a210f61244a087&#45;&gt;dir_6072663c54edb131dd9eabf55cf77072 -->
<g id="edge12" class="edge">
<title>dir_978717066d8678c437a210f61244a087&#45;&gt;dir_6072663c54edb131dd9eabf55cf77072</title>
<g id="a_edge12"><a xlink:href="dir_000045_000018.html" target="_top">
<path fill="none" stroke="#63b8ff" d="M115.39,-72.42C120.95,-69.71 127.14,-66.92 133,-64.75 167.44,-52.01 208.11,-41.71 236.9,-35.17"/>
<polygon fill="#63b8ff" stroke="#63b8ff" points="237.59,-38.6 246.59,-33.02 236.07,-31.77 237.59,-38.6"/>
</a>
</g>
<g id="a_edge12&#45;headlabel"><a xlink:href="dir_000045_000018.html" target="_top" xlink:title="5">
<text text-anchor="middle" x="236.18" y="-38.7" font-family="Helvetica,sans-Serif" font-size="10.00" fill="#63b8ff">5</text>
</a>
</g>
</g>
</g>
</svg>
