<?xml version="1.0" encoding="UTF-8" standalone="no"?>
<!DOCTYPE svg PUBLIC "-//W3C//DTD SVG 1.1//EN"
 "http://www.w3.org/Graphics/SVG/1.1/DTD/svg11.dtd">
<!-- Generated by graphviz version 10.0.1 (0)
 -->
<!-- Title: nixd Pages: 1 -->
<svg width="364pt" height="244pt"
 viewBox="0.00 0.00 364.49 243.75" xmlns="http://www.w3.org/2000/svg" xmlns:xlink="http://www.w3.org/1999/xlink">
<g id="graph0" class="graph" transform="scale(1 1) rotate(0) translate(4 239.75)">
<title>nixd</title>
<g id="clust1" class="cluster">
<title>clusterdir_6072663c54edb131dd9eabf55cf77072</title>
<g id="a_clust1"><a xlink:href="dir_6072663c54edb131dd9eabf55cf77072.html" target="_top" xlink:title="include">
<polygon fill="#edf0f7" stroke="#7f7f7f" stroke-dasharray="5,2" points="8,-40.75 8,-227.75 264,-227.75 264,-40.75 8,-40.75"/>
<text text-anchor="middle" x="136" y="-214.25" font-family="Helvetica,sans-Serif" font-size="10.00">include</text>
</a>
</g>
</g>
<g id="clust2" class="cluster">
<title>clusterdir_78474edbfdb26b7810ef0ed54a6ffeb0</title>
<g id="a_clust2"><a xlink:href="dir_78474edbfdb26b7810ef0ed54a6ffeb0.html" target="_top">
<polygon fill="#edf0f7" stroke="#404040" stroke-width="2" points="16,-48.75 16,-199 256,-199 256,-48.75 16,-48.75"/>
</a>
</g>
</g>
<!-- dir_78474edbfdb26b7810ef0ed54a6ffeb0 -->
<g id="node1" class="node">
<title>dir_78474edbfdb26b7810ef0ed54a6ffeb0</title>
<text text-anchor="middle" x="43" y="-177.5" font-family="Helvetica,sans-Serif" font-size="10.00">nixd</text>
</g>
<!-- dir_0842f02ee6fc0ecc9c7973a56a3aa437 -->
<g id="node2" class="node">
<title>dir_0842f02ee6fc0ecc9c7973a56a3aa437</title>
<g id="a_node2"><a xlink:href="dir_0842f02ee6fc0ecc9c7973a56a3aa437.html" target="_top" xlink:title="CommandLine">
<polygon fill="#a2b4d6" stroke="#404040" points="166.25,-191 79.75,-191 79.75,-170.25 166.25,-170.25 166.25,-191"/>
<text text-anchor="middle" x="123" y="-177.5" font-family="Helvetica,sans-Serif" font-size="10.00">CommandLine</text>
</a>
</g>
</g>
<!-- dir_1b739488bd9a560c1a1a4ec4ac74c381 -->
<g id="node3" class="node">
<title>dir_1b739488bd9a560c1a1a4ec4ac74c381</title>
<g id="a_node3"><a xlink:href="dir_1b739488bd9a560c1a1a4ec4ac74c381.html" target="_top" xlink:title="Controller">
<polygon fill="#a2b4d6" stroke="#404040" points="248,-191 184,-191 184,-170.25 248,-170.25 248,-191"/>
<text text-anchor="middle" x="216" y="-177.5" font-family="Helvetica,sans-Serif" font-size="10.00">Controller</text>
</a>
</g>
</g>
<!-- dir_5d9174fd82c34d170442a81ddb0d3867 -->
<g id="node4" class="node">
<title>dir_5d9174fd82c34d170442a81ddb0d3867</title>
<g id="a_node4"><a xlink:href="dir_5d9174fd82c34d170442a81ddb0d3867.html" target="_top" xlink:title="Eval">
<polygon fill="#a2b4d6" stroke="#404040" points="247.5,-134.25 210.5,-134.25 210.5,-113.5 247.5,-113.5 247.5,-134.25"/>
<text text-anchor="middle" x="229" y="-120.75" font-family="Helvetica,sans-Serif" font-size="10.00">Eval</text>
</a>
</g>
</g>
<!-- dir_1b739488bd9a560c1a1a4ec4ac74c381&#45;&gt;dir_5d9174fd82c34d170442a81ddb0d3867 -->
<g id="edge2" class="edge">
<title>dir_1b739488bd9a560c1a1a4ec4ac74c381&#45;&gt;dir_5d9174fd82c34d170442a81ddb0d3867</title>
<g id="a_edge2"><a xlink:href="dir_000007_000011.html" target="_top">
<path fill="none" stroke="#63b8ff" d="M218.32,-169.84C219.91,-163.14 222.08,-154.01 224.05,-145.73"/>
<polygon fill="#63b8ff" stroke="#63b8ff" points="227.44,-146.59 226.35,-136.05 220.63,-144.97 227.44,-146.59"/>
</a>
</g>
<g id="a_edge2&#45;headlabel"><a xlink:href="dir_000007_000011.html" target="_top" xlink:title="1">
<text text-anchor="middle" x="229.72" y="-146.14" font-family="Helvetica,sans-Serif" font-size="10.00" fill="#63b8ff">1</text>
</a>
</g>
</g>
<!-- dir_fae1b722d580b1d4896c7d9500c560d0 -->
<g id="node5" class="node">
<title>dir_fae1b722d580b1d4896c7d9500c560d0</title>
<g id="a_node5"><a xlink:href="dir_fae1b722d580b1d4896c7d9500c560d0.html" target="_top" xlink:title="Protocol">
<polygon fill="#a2b4d6" stroke="#404040" points="175.88,-77.5 120.12,-77.5 120.12,-56.75 175.88,-56.75 175.88,-77.5"/>
<text text-anchor="middle" x="148" y="-64" font-family="Helvetica,sans-Serif" font-size="10.00">Protocol</text>
</a>
</g>
</g>
<!-- dir_1b739488bd9a560c1a1a4ec4ac74c381&#45;&gt;dir_fae1b722d580b1d4896c7d9500c560d0 -->
<g id="edge5" class="edge">
<title>dir_1b739488bd9a560c1a1a4ec4ac74c381&#45;&gt;dir_fae1b722d580b1d4896c7d9500c560d0</title>
<g id="a_edge5"><a xlink:href="dir_000007_000036.html" target="_top">
<path fill="none" stroke="#63b8ff" d="M210.2,-170.12C199.07,-151.86 174.49,-111.56 159.78,-87.45"/>
<polygon fill="#63b8ff" stroke="#63b8ff" points="162.96,-85.93 154.76,-79.22 156.98,-89.58 162.96,-85.93"/>
</a>
</g>
<g id="a_edge5&#45;headlabel"><a xlink:href="dir_000007_000036.html" target="_top" xlink:title="1">
<text text-anchor="middle" x="166.47" y="-83.11" font-family="Helvetica,sans-Serif" font-size="10.00" fill="#63b8ff">1</text>
</a>
</g>
</g>
<!-- dir_0a80291a1162a19961e2bbfd790094c7 -->
<g id="node6" class="node">
<title>dir_0a80291a1162a19961e2bbfd790094c7</title>
<g id="a_node6"><a xlink:href="dir_0a80291a1162a19961e2bbfd790094c7.html" target="_top" xlink:title="Support">
<polygon fill="#a2b4d6" stroke="#404040" points="247.75,-77.5 194.25,-77.5 194.25,-56.75 247.75,-56.75 247.75,-77.5"/>
<text text-anchor="middle" x="221" y="-64" font-family="Helvetica,sans-Serif" font-size="10.00">Support</text>
</a>
</g>
</g>
<!-- dir_1b739488bd9a560c1a1a4ec4ac74c381&#45;&gt;dir_0a80291a1162a19961e2bbfd790094c7 -->
<g id="edge1" class="edge">
<title>dir_1b739488bd9a560c1a1a4ec4ac74c381&#45;&gt;dir_0a80291a1162a19961e2bbfd790094c7</title>
<g id="a_edge1"><a xlink:href="dir_000007_000044.html" target="_top">
<path fill="none" stroke="#63b8ff" d="M211.37,-169.78C205.89,-156.87 197.98,-133.52 202,-113.5 203.74,-104.84 207.18,-95.76 210.66,-88.03"/>
<polygon fill="#63b8ff" stroke="#63b8ff" points="213.72,-89.74 214.93,-79.22 207.42,-86.69 213.72,-89.74"/>
</a>
</g>
<g id="a_edge1&#45;headlabel"><a xlink:href="dir_000007_000044.html" target="_top" xlink:title="2">
<text text-anchor="middle" x="215.36" y="-89.73" font-family="Helvetica,sans-Serif" font-size="10.00" fill="#63b8ff">2</text>
</a>
</g>
</g>
<!-- dir_9ff0e04ed484c0229c3bd8fc4cfe4cb8 -->
<g id="node7" class="node">
<title>dir_9ff0e04ed484c0229c3bd8fc4cfe4cb8</title>
<g id="a_node7"><a xlink:href="dir_9ff0e04ed484c0229c3bd8fc4cfe4cb8.html" target="_top" xlink:title="libnixf">
<polygon fill="#edf0f7" stroke="red" points="318.38,-134.25 271.62,-134.25 271.62,-113.5 318.38,-113.5 318.38,-134.25"/>
<text text-anchor="middle" x="295" y="-120.75" font-family="Helvetica,sans-Serif" font-size="10.00">libnixf</text>
</a>
</g>
</g>
<!-- dir_1b739488bd9a560c1a1a4ec4ac74c381&#45;&gt;dir_9ff0e04ed484c0229c3bd8fc4cfe4cb8 -->
<g id="edge3" class="edge">
<title>dir_1b739488bd9a560c1a1a4ec4ac74c381&#45;&gt;dir_9ff0e04ed484c0229c3bd8fc4cfe4cb8</title>
<g id="a_edge3"><a xlink:href="dir_000007_000023.html" target="_top">
<path fill="none" stroke="#63b8ff" d="M230.12,-169.84C241.69,-161.82 258.3,-150.31 271.82,-140.94"/>
<polygon fill="#63b8ff" stroke="#63b8ff" points="273.53,-144.01 279.75,-135.44 269.54,-138.26 273.53,-144.01"/>
</a>
</g>
<g id="a_edge3&#45;headlabel"><a xlink:href="dir_000007_000023.html" target="_top" xlink:title="4">
<text text-anchor="middle" x="273.44" y="-144.41" font-family="Helvetica,sans-Serif" font-size="10.00" fill="#63b8ff">4</text>
</a>
</g>
</g>
<!-- dir_b78a71a762ff0582d59dc461a15bff38 -->
<g id="node8" class="node">
<title>dir_b78a71a762ff0582d59dc461a15bff38</title>
<g id="a_node8"><a xlink:href="dir_b78a71a762ff0582d59dc461a15bff38.html" target="_top" xlink:title="lspserver">
<polygon fill="#edf0f7" stroke="red" points="313.5,-20.75 252.5,-20.75 252.5,0 313.5,0 313.5,-20.75"/>
<text text-anchor="middle" x="283" y="-7.25" font-family="Helvetica,sans-Serif" font-size="10.00">lspserver</text>
</a>
</g>
</g>
<!-- dir_1b739488bd9a560c1a1a4ec4ac74c381&#45;&gt;dir_b78a71a762ff0582d59dc461a15bff38 -->
<g id="edge4" class="edge">
<title>dir_1b739488bd9a560c1a1a4ec4ac74c381&#45;&gt;dir_b78a71a762ff0582d59dc461a15bff38</title>
<g id="a_edge4"><a xlink:href="dir_000007_000025.html" target="_top">
<path fill="none" stroke="#63b8ff" d="M248.3,-174.22C273.12,-168.43 306.5,-156.84 327,-134.25 355.38,-102.97 366.47,-76.51 344,-40.75 339.3,-33.28 332.11,-27.66 324.3,-23.45"/>
<polygon fill="#63b8ff" stroke="#63b8ff" points="325.75,-20.27 315.2,-19.32 322.86,-26.64 325.75,-20.27"/>
</a>
</g>
<g id="a_edge4&#45;headlabel"><a xlink:href="dir_000007_000025.html" target="_top" xlink:title="4">
<text text-anchor="middle" x="328.82" y="-15.42" font-family="Helvetica,sans-Serif" font-size="10.00" fill="#63b8ff">4</text>
</a>
</g>
</g>
<!-- dir_5d9174fd82c34d170442a81ddb0d3867&#45;&gt;dir_fae1b722d580b1d4896c7d9500c560d0 -->
<g id="edge9" class="edge">
<title>dir_5d9174fd82c34d170442a81ddb0d3867&#45;&gt;dir_fae1b722d580b1d4896c7d9500c560d0</title>
<g id="a_edge9"><a xlink:href="dir_000011_000036.html" target="_top">
<path fill="none" stroke="#63b8ff" d="M214.52,-113.09C202.65,-105.07 185.63,-93.56 171.77,-84.19"/>
<polygon fill="#63b8ff" stroke="#63b8ff" points="173.85,-81.38 163.61,-78.68 169.93,-87.18 173.85,-81.38"/>
</a>
</g>
<g id="a_edge9&#45;headlabel"><a xlink:href="dir_000011_000036.html" target="_top" xlink:title="3">
<text text-anchor="middle" x="177.17" y="-77.06" font-family="Helvetica,sans-Serif" font-size="10.00" fill="#63b8ff">3</text>
</a>
</g>
</g>
<!-- dir_5d9174fd82c34d170442a81ddb0d3867&#45;&gt;dir_0a80291a1162a19961e2bbfd790094c7 -->
<g id="edge6" class="edge">
<title>dir_5d9174fd82c34d170442a81ddb0d3867&#45;&gt;dir_0a80291a1162a19961e2bbfd790094c7</title>
<g id="a_edge6"><a xlink:href="dir_000011_000044.html" target="_top">
<path fill="none" stroke="#63b8ff" d="M227.57,-113.09C226.59,-106.39 225.26,-97.26 224.05,-88.98"/>
<polygon fill="#63b8ff" stroke="#63b8ff" points="227.55,-88.71 222.64,-79.33 220.62,-89.73 227.55,-88.71"/>
</a>
</g>
<g id="a_edge6&#45;headlabel"><a xlink:href="dir_000011_000044.html" target="_top" xlink:title="1">
<text text-anchor="middle" x="230.66" y="-87.24" font-family="Helvetica,sans-Serif" font-size="10.00" fill="#63b8ff">1</text>
</a>
</g>
</g>
<!-- dir_5d9174fd82c34d170442a81ddb0d3867&#45;&gt;dir_b78a71a762ff0582d59dc461a15bff38 -->
<g id="edge7" class="edge">
<title>dir_5d9174fd82c34d170442a81ddb0d3867&#45;&gt;dir_b78a71a762ff0582d59dc461a15bff38</title>
<g id="a_edge7"><a xlink:href="dir_000011_000025.html" target="_top">
<path fill="none" stroke="#63b8ff" d="M247.81,-116.87C273.65,-108.19 317.96,-91.64 327,-77.5 335.79,-63.74 334.7,-55.15 327,-40.75 324.26,-35.62 320.17,-31.23 315.58,-27.52"/>
<polygon fill="#63b8ff" stroke="#63b8ff" points="317.84,-24.82 307.6,-22.09 313.9,-30.61 317.84,-24.82"/>
</a>
</g>
<g id="a_edge7&#45;headlabel"><a xlink:href="dir_000011_000025.html" target="_top" xlink:title="4">
<text text-anchor="middle" x="321.16" y="-20.52" font-family="Helvetica,sans-Serif" font-size="10.00" fill="#63b8ff">4</text>
</a>
</g>
</g>
<!-- dir_c40eb6f7b133789742bdf3cebb28ba81 -->
<g id="node9" class="node">
<title>dir_c40eb6f7b133789742bdf3cebb28ba81</title>
<g id="a_node9"><a xlink:href="dir_c40eb6f7b133789742bdf3cebb28ba81.html" target="_top" xlink:title="libnixt">
<polygon fill="#edf0f7" stroke="red" points="318.38,-77.5 271.62,-77.5 271.62,-56.75 318.38,-56.75 318.38,-77.5"/>
<text text-anchor="middle" x="295" y="-64" font-family="Helvetica,sans-Serif" font-size="10.00">libnixt</text>
</a>
</g>
</g>
<!-- dir_5d9174fd82c34d170442a81ddb0d3867&#45;&gt;dir_c40eb6f7b133789742bdf3cebb28ba81 -->
<g id="edge8" class="edge">
<title>dir_5d9174fd82c34d170442a81ddb0d3867&#45;&gt;dir_c40eb6f7b133789742bdf3cebb28ba81</title>
<g id="a_edge8"><a xlink:href="dir_000011_000024.html" target="_top">
<path fill="none" stroke="#63b8ff" d="M240.8,-113.09C250.18,-105.3 263.54,-94.22 274.64,-85.01"/>
<polygon fill="#63b8ff" stroke="#63b8ff" points="276.68,-87.87 282.14,-78.79 272.21,-82.49 276.68,-87.87"/>
</a>
</g>
<g id="a_edge8&#45;headlabel"><a xlink:href="dir_000011_000024.html" target="_top" xlink:title="2">
<text text-anchor="middle" x="276.89" y="-88.26" font-family="Helvetica,sans-Serif" font-size="10.00" fill="#63b8ff">2</text>
</a>
</g>
</g>
<!-- dir_fae1b722d580b1d4896c7d9500c560d0&#45;&gt;dir_b78a71a762ff0582d59dc461a15bff38 -->
<g id="edge11" class="edge">
<title>dir_fae1b722d580b1d4896c7d9500c560d0&#45;&gt;dir_b78a71a762ff0582d59dc461a15bff38</title>
<g id="a_edge11"><a xlink:href="dir_000036_000025.html" target="_top">
<path fill="none" stroke="#63b8ff" d="M160.08,-56.42C167.04,-51.2 176.15,-44.99 185,-40.75 202.7,-32.28 223.36,-25.66 241.15,-20.86"/>
<polygon fill="#63b8ff" stroke="#63b8ff" points="241.8,-24.3 250.61,-18.41 240.05,-17.52 241.8,-24.3"/>
</a>
</g>
<g id="a_edge11&#45;headlabel"><a xlink:href="dir_000036_000025.html" target="_top" xlink:title="1">
<text text-anchor="middle" x="240.49" y="-24.45" font-family="Helvetica,sans-Serif" font-size="10.00" fill="#63b8ff">1</text>
</a>
</g>
</g>
<!-- dir_b55f34eed50f427f5a82f0c0c0b607fd -->
<g id="node10" class="node">
<title>dir_b55f34eed50f427f5a82f0c0c0b607fd</title>
<g id="a_node10"><a xlink:href="dir_b55f34eed50f427f5a82f0c0c0b607fd.html" target="_top" xlink:title="libbc">
<polygon fill="#edf0f7" stroke="red" points="167.62,-20.75 128.38,-20.75 128.38,0 167.62,0 167.62,-20.75"/>
<text text-anchor="middle" x="148" y="-7.25" font-family="Helvetica,sans-Serif" font-size="10.00">libbc</text>
</a>
</g>
</g>
<!-- dir_fae1b722d580b1d4896c7d9500c560d0&#45;&gt;dir_b55f34eed50f427f5a82f0c0c0b607fd -->
<g id="edge10" class="edge">
<title>dir_fae1b722d580b1d4896c7d9500c560d0&#45;&gt;dir_b55f34eed50f427f5a82f0c0c0b607fd</title>
<g id="a_edge10"><a xlink:href="dir_000036_000021.html" target="_top">
<path fill="none" stroke="#63b8ff" d="M148,-56.34C148,-49.72 148,-40.72 148,-32.52"/>
<polygon fill="#63b8ff" stroke="#63b8ff" points="151.5,-32.59 148,-22.59 144.5,-32.59 151.5,-32.59"/>
</a>
</g>
<g id="a_edge10&#45;headlabel"><a xlink:href="dir_000036_000021.html" target="_top" xlink:title="2">
<text text-anchor="middle" x="154.34" y="-31.55" font-family="Helvetica,sans-Serif" font-size="10.00" fill="#63b8ff">2</text>
</a>
</g>
</g>
<!-- dir_0a80291a1162a19961e2bbfd790094c7&#45;&gt;dir_b78a71a762ff0582d59dc461a15bff38 -->
<g id="edge12" class="edge">
<title>dir_0a80291a1162a19961e2bbfd790094c7&#45;&gt;dir_b78a71a762ff0582d59dc461a15bff38</title>
<g id="a_edge12"><a xlink:href="dir_000044_000025.html" target="_top">
<path fill="none" stroke="#63b8ff" d="M232.08,-56.34C240.81,-48.63 253.19,-37.7 263.56,-28.54"/>
<polygon fill="#63b8ff" stroke="#63b8ff" points="265.7,-31.32 270.88,-22.08 261.06,-26.08 265.7,-31.32"/>
</a>
</g>
<g id="a_edge12&#45;headlabel"><a xlink:href="dir_000044_000025.html" target="_top" xlink:title="1">
<text text-anchor="middle" x="266.02" y="-31.7" font-family="Helvetica,sans-Serif" font-size="10.00" fill="#63b8ff">1</text>
</a>
</g>
</g>
</g>
</svg>
