<?xml version="1.0" encoding="UTF-8" standalone="no"?>
<!DOCTYPE svg PUBLIC "-//W3C//DTD SVG 1.1//EN"
 "http://www.w3.org/Graphics/SVG/1.1/DTD/svg11.dtd">
<!-- Generated by graphviz version 10.0.1 (0)
 -->
<!-- Title: nixd::Configuration Pages: 1 -->
<svg width="242pt" height="111pt"
 viewBox="0.00 0.00 242.25 111.00" xmlns="http://www.w3.org/2000/svg" xmlns:xlink="http://www.w3.org/1999/xlink">
<g id="graph0" class="graph" transform="scale(1 1) rotate(0) translate(4 107)">
<title>nixd::Configuration</title>
<!-- Node1 -->
<g id="Node000001" class="node">
<title>Node1</title>
<g id="a_Node000001"><a xlink:title=" ">
<polygon fill="#999999" stroke="#666666" points="171.25,-20.75 63,-20.75 63,0 171.25,0 171.25,-20.75"/>
<text text-anchor="middle" x="117.12" y="-7.25" font-family="Helvetica,sans-Serif" font-size="10.00">nixd::Configuration</text>
</a>
</g>
</g>
<!-- Node2 -->
<g id="Node000002" class="node">
<title>Node2</title>
<g id="a_Node000002"><a xlink:href="structnixd_1_1Configuration_1_1Formatting.html" target="_top" xlink:title=" ">
<polygon fill="white" stroke="#666666" points="108.25,-103 0,-103 0,-69.5 108.25,-69.5 108.25,-103"/>
<text text-anchor="start" x="8" y="-89.5" font-family="Helvetica,sans-Serif" font-size="10.00">nixd::Configuration</text>
<text text-anchor="middle" x="54.12" y="-76.75" font-family="Helvetica,sans-Serif" font-size="10.00">::Formatting</text>
</a>
</g>
</g>
<!-- Node2&#45;&gt;Node1 -->
<g id="edge1_Node000001_Node000002" class="edge">
<title>Node2&#45;&gt;Node1</title>
<g id="a_edge1_Node000001_Node000002"><a xlink:title=" ">
<path fill="none" stroke="#9a32cd" stroke-dasharray="5,2" d="M75.05,-60.71C86.7,-47.05 100.52,-30.84 109.06,-20.83"/>
<polygon fill="#9a32cd" stroke="#9a32cd" points="72.6,-58.19 68.78,-68.07 77.93,-62.73 72.6,-58.19"/>
</a>
</g>
<text text-anchor="middle" x="120.5" y="-42" font-family="Helvetica,sans-Serif" font-size="10.00" fill="grey"> formatting</text>
</g>
<!-- Node3 -->
<g id="Node000003" class="node">
<title>Node3</title>
<g id="a_Node000003"><a xlink:href="structnixd_1_1Configuration_1_1NixpkgsProvider.html" target="_top" xlink:title=" ">
<polygon fill="white" stroke="#666666" points="234.25,-103 126,-103 126,-69.5 234.25,-69.5 234.25,-103"/>
<text text-anchor="start" x="134" y="-89.5" font-family="Helvetica,sans-Serif" font-size="10.00">nixd::Configuration</text>
<text text-anchor="middle" x="180.12" y="-76.75" font-family="Helvetica,sans-Serif" font-size="10.00">::NixpkgsProvider</text>
</a>
</g>
</g>
<!-- Node3&#45;&gt;Node1 -->
<g id="edge2_Node000001_Node000003" class="edge">
<title>Node3&#45;&gt;Node1</title>
<g id="a_edge2_Node000001_Node000003"><a xlink:title=" ">
<path fill="none" stroke="#9a32cd" stroke-dasharray="5,2" d="M166.78,-59.32C162.57,-52.28 157.58,-44.91 152.12,-38.75 146.3,-32.16 138.72,-26.02 132.1,-21.22"/>
<polygon fill="#9a32cd" stroke="#9a32cd" points="163.65,-60.9 171.61,-67.89 169.75,-57.46 163.65,-60.9"/>
</a>
</g>
<text text-anchor="middle" x="181.75" y="-42" font-family="Helvetica,sans-Serif" font-size="10.00" fill="grey"> nixpkgs</text>
</g>
</g>
</svg>
